<?xml version="1.0" encoding="UTF-8"?>
<svg width="68px" height="48px" viewBox="0 0 60 48" version="1.1" xmlns="http://www.w3.org/2000/svg" xmlns:xlink="http://www.w3.org/1999/xlink">
    <g id="Page-1" stroke="none" stroke-width="1" fill="none" fill-rule="evenodd">
            <g id="Page-1">
                <path d="M47.6378563,17.807563 L49.8757413,17.807563 C54.3515111,17.807563 57.9851295,14.1735534 57.9851295,9.69759183 C57.9851295,5.22186587 54.3515111,1.58785625 49.8757413,1.58785625 C45.3999714,1.58785625 41.7661174,5.22186587 41.7661174,9.69759183 L41.7661174,11.9355726 C41.7439742,15.1707505 44.3806737,17.807563 47.6378563,17.807563" id="Fill-1" fill="#000000"></path>
                <path d="M10.347391,17.807563 L8.10950604,17.807563 C3.6337362,17.807563 0.000117783417,14.1735534 0.000117783417,9.69759183 C0.000117783417,5.22186587 3.6337362,1.58785625 8.10950604,1.58785625 C12.5852759,1.58785625 16.2191299,5.22186587 16.2191299,9.69759183 L16.2191299,11.9355726 C16.2412731,15.1707505 13.6045736,17.807563 10.347391,17.807563" id="Fill-3" fill="#000000"></path>
                <path d="M41.1679897,43.9541279 C33.7895653,47.3000269 25.2149326,47.3664596 17.7922216,44.1312817 L17.1495953,43.8434067 C9.66045452,40.6082288 4.87444315,33.5840317 4.87444315,25.8952721 L4.87444315,24.0118346 C4.87444315,11.5811471 15.6871964,1.47701731 29.0037895,1.47701731 C42.3201471,1.47701731 53.1329003,11.5590029 53.1329003,24.0118346 L53.1329003,26.11695 C53.1329003,33.7171327 48.4797486,40.6525173 41.1679897,43.9541279" id="Fill-5" fill="#FFFFFF"></path>
                <path d="M40.5838256,42.6713822 C33.5686585,45.8525547 25.4117942,45.9147418 18.3573831,42.8400869 L17.7922216,44.1312817 L18.3704905,42.845879 L17.7278641,42.558004 L17.7105378,42.5503812 C10.7386636,39.5386535 6.28642394,33.0219346 6.28642394,25.8952721 L6.28642394,24.0118346 C6.28642394,12.3788318 16.4491112,2.88600185 29.0037895,2.88600185 C41.566654,2.88600185 51.7209195,12.364594 51.7209195,24.0118346 L51.7209195,26.11695 C51.7209195,33.1536121 47.4012138,39.5930018 40.5858806,42.6704523 L40.5838256,42.6713822 Z M41.7500988,45.2378035 C49.5593164,41.7115664 54.5448811,34.2795799 54.5448811,26.11695 L54.5448811,24.0118346 C54.5448811,10.7646897 43.085722,0.0680327684 29.0037895,0.0680327684 C14.9296515,0.0680327684 3.46246237,10.7793805 3.46246237,24.0118346 L3.46246237,25.8952721 C3.46246237,34.1650673 8.60060176,41.6857338 16.5886528,45.1364322 L17.1495953,43.8434067 L16.5713265,45.1288095 L17.2139528,45.4166845 L17.2270602,45.4224766 C25.0156794,48.8171351 34.0080933,48.7485778 41.7521538,45.2368736 L41.7500988,45.2378035 Z" id="Stroke-7" fill="#000000"></path>
                <path d="M11.969033,16.7796466 C14.3336529,12.9823822 18.8200233,11.7908341 21.9900462,14.1180986 C25.1598335,16.445363 25.8125892,21.4103822 23.4482049,25.2076466 C21.083585,29.0046755 16.5969791,30.1964591 13.4271917,27.8691947 C10.2574044,25.5416947 9.60441317,20.5769111 11.969033,16.7796466" id="Fill-9" fill="#000000"></path>
                <path d="M40.5411228,40.9705226 L40.5392383,40.9714649 C33.522409,44.1531668 25.4516537,44.2141813 18.4091476,41.1450851 L17.7547429,40.8517918 C10.8330827,37.8618495 6.36061075,31.3410803 6.36061075,24.2391428 L6.36061075,26.0957245 C6.36061075,33.197662 10.8330827,39.7184313 17.7547429,42.7083736 L18.4091476,43.0016668 C25.4516537,46.070763 33.522409,46.0097486 40.5392383,42.8280466 L40.5411228,42.8271043 C47.2875213,39.7808591 51.6466856,33.2996668 51.6466856,26.3157534 L51.6466856,24.4591716 C51.6466856,31.4430851 47.2875213,37.9242774 40.5411228,40.9705226" id="Fill-11" fill="#E6E6E6"></path>
                <path d="M32.219159,31.8812111 L30.0755008,33.2239995 C29.4159137,33.6244803 28.5914298,33.6244803 27.9553993,33.2239995 L25.8117411,31.8812111 C25.2228241,31.504288 24.8694738,30.8682303 24.8694738,30.1850572 C24.8694738,29.0778457 25.7646278,28.1826534 26.8717919,28.1826534 L31.1591083,28.1826534 C32.2662724,28.1826534 33.1614264,29.0778457 33.1614264,30.1850572 C33.1614264,30.8682303 32.8080761,31.5278457 32.219159,31.8812111" id="Fill-13" fill="#000000"></path>
                <path d="M34.1423958,34.1850086 C31.3041762,37.0233498 26.7032144,37.0233498 23.8649948,34.1850086 C23.4059823,33.7259764 22.6609687,33.7251709 22.2009604,34.1832093 C21.7409521,34.6412478 21.7401449,35.3846804 22.1991574,35.8437126 C25.9568091,39.6015252 32.0505815,39.6015252 35.8082332,35.8437126 C36.2672457,35.3846804 36.2664385,34.6412478 35.8064302,34.1832093 C35.3464219,33.7251709 34.6014083,33.7259764 34.1423958,34.1850086 Z" id="Stroke-15" fill="#010202"></path>
                <path d="M29.9567706,37.4879183 L29.9567706,32.611476 C29.9567706,32.0927022 29.535327,31.6721529 29.0154501,31.6721529 C28.4955731,31.6721529 28.0741296,32.0927022 28.0741296,32.611476 L28.0741296,37.4879183 C28.0741296,38.0066921 28.4955731,38.4272413 29.0154501,38.4272413 C29.535327,38.4272413 29.9567706,38.0066921 29.9567706,37.4879183 Z" id="Stroke-17" fill="#010202"></path>
                <path d="M16.6844686,17.585626 C17.5237932,16.2378904 19.116225,15.8147942 20.2412922,16.6409625 C21.3663594,17.4668952 21.5979216,19.2292462 20.7588325,20.5769817 C19.9195079,21.9247173 18.3270761,22.3475779 17.2020089,21.5216452 C16.0769417,20.6957125 15.845144,18.9333615 16.6844686,17.585626" id="Fill-19" fill="#FFFFFF"></path>
                <path d="M46.0618671,16.7796466 C43.6972472,12.9823822 39.2108769,11.7908341 36.040854,14.1180986 C32.8710667,16.445363 32.218311,21.4103822 34.5826953,25.2076466 C36.9473152,29.0046755 41.4339211,30.1964591 44.6037084,27.8691947 C47.7734957,25.5416947 48.426487,20.5769111 46.0618671,16.7796466" id="Fill-21" fill="#000000"></path>
                <path d="M41.3464551,17.585626 C40.5071305,16.2378904 38.9146987,15.8147942 37.7896315,16.6409625 C36.6645643,17.4668952 36.4330021,19.2292462 37.2720912,20.5769817 C38.1114158,21.9247173 39.7038476,22.3475779 40.8289148,21.5216452 C41.953982,20.6957125 42.1857797,18.9333615 41.3464551,17.585626" id="Fill-23" fill="#FFFFFF"></path>
            </g>
    </g>
</svg>